<?xml version="1.0" standalone="no"?>
<!DOCTYPE svg PUBLIC "-//W3C//DTD SVG 20010904//EN"
 "http://www.w3.org/TR/2001/REC-SVG-20010904/DTD/svg10.dtd">
<svg version="1.0" xmlns="http://www.w3.org/2000/svg"
 width="441.000000pt" height="441.000000pt" viewBox="0 0 441.000000 441.000000"
 preserveAspectRatio="xMidYMid meet">
<metadata>
Created by potrace 1.14, written by Peter Selinger 2001-2017
</metadata>
<g transform="translate(0.000000,441.000000) scale(0.100000,-0.100000)"
fill="#000000" stroke="none">
<path d="M1968 3745 c-2 -2 -22 -5 -46 -8 -63 -7 -64 -17 -1 -17 330 -3 581
-1 587 5 4 5 2 5 -5 1 -6 -3 -14 -2 -18 3 -3 5 -13 10 -23 11 -45 2 -492 7
-494 5z"/>
<path d="M1440 3576 c-11 -5 -20 -12 -20 -15 0 -9 692 -5 713 4 9 4 17 10 17
14 0 10 -687 7 -710 -3z"/>
<path d="M2235 3571 c13 -13 65 -16 361 -16 190 0 348 3 350 7 12 19 -49 22
-374 23 -315 1 -351 -1 -337 -14z"/>
<path d="M2170 3499 c-7 -11 -9 -23 -6 -26 3 -3 -2 -19 -10 -35 -15 -29 -15
-51 -2 -146 2 -20 -4 -27 -44 -42 -25 -9 -85 -39 -133 -65 l-87 -47 21 -22
c21 -23 41 -75 41 -108 0 -12 -8 -18 -24 -18 -14 0 -25 -7 -28 -17 -2 -10 -5
-108 -6 -217 -2 -110 -5 -202 -8 -205 -16 -16 -120 -24 -156 -12 -84 28 -92
147 -12 185 47 22 77 20 102 -7 30 -32 27 -64 -9 -98 -32 -30 -27 -37 14 -18
73 33 71 146 -4 185 -62 32 -137 17 -189 -37 -70 -74 -57 -191 28 -249 l35
-24 -29 -12 c-71 -28 -79 -27 -98 16 -10 22 -26 45 -37 51 -28 15 -75 14 -94
-1 -20 -17 -19 -30 3 -30 26 0 61 -41 73 -85 9 -33 8 -41 -17 -77 l-28 -40
-18 39 c-25 54 -68 78 -136 74 -26 -1 -76 -46 -86 -78 l-7 -21 51 19 c46 17
54 18 79 5 56 -30 80 -98 47 -135 -38 -42 5 -132 70 -146 16 -3 35 -10 43 -14
9 -5 41 -119 88 -317 40 -170 73 -315 73 -322 0 -7 -12 -30 -26 -52 -28 -42
-25 -62 9 -56 12 3 24 5 27 5 3 1 20 15 38 31 39 36 58 37 88 9 l23 -22 -42
-21 c-81 -41 -111 -127 -64 -182 42 -48 118 -29 130 32 6 31 -9 31 -17 0 -11
-45 -74 -46 -94 -2 -14 32 10 78 52 101 66 36 155 0 224 -90 39 -50 41 -87 8
-104 -29 -16 -56 -11 -70 12 -9 14 -7 21 6 31 10 7 15 16 12 19 -8 8 -32 -15
-35 -34 -11 -54 51 -85 110 -55 29 16 31 16 31 -2 0 -11 9 -30 19 -44 11 -13
22 -41 26 -61 7 -37 44 -77 71 -77 19 0 53 48 60 87 4 20 15 44 25 54 11 11
19 28 19 39 0 18 3 19 21 10 67 -36 119 -17 124 45 1 14 -25 39 -44 42 -11 1
-8 -4 8 -16 32 -24 21 -61 -17 -61 -64 1 -79 50 -35 109 73 97 158 133 228 97
54 -28 76 -96 39 -123 -37 -27 -72 -12 -84 38 l-8 34 -1 -36 c-1 -43 22 -67
67 -73 22 -2 37 3 50 18 37 40 42 60 28 101 -17 49 -47 81 -92 95 l-36 12 23
24 c37 40 55 33 117 -40 22 -26 23 -27 52 -10 l29 17 -31 44 c-26 38 -29 49
-22 81 4 20 9 42 9 47 1 6 5 21 8 35 4 14 18 75 32 135 14 61 30 120 35 133 7
17 7 21 -1 16 -8 -4 -8 -1 -1 12 5 11 17 53 26 94 33 148 34 150 64 150 37 0
90 34 102 66 14 37 12 70 -5 84 -26 21 -19 78 14 111 16 16 38 30 48 30 32 2
58 -2 68 -12 5 -5 17 -9 27 -9 32 0 8 40 -45 75 -57 37 -137 10 -167 -57 l-18
-40 -26 35 c-21 27 -25 42 -21 68 11 60 54 110 88 101 11 -3 8 13 -5 26 -22
22 -83 14 -112 -14 -14 -15 -26 -32 -26 -39 0 -29 -26 -35 -79 -19 l-52 15 40
29 c76 55 95 132 53 212 -42 79 -147 112 -220 68 -80 -49 -63 -174 26 -185 18
-2 30 0 27 6 -4 5 -12 9 -19 9 -20 0 -46 34 -46 62 0 50 67 81 117 54 41 -21
54 -39 59 -84 3 -31 -2 -45 -25 -73 -29 -34 -30 -34 -110 -33 -44 0 -84 4 -88
7 -3 4 -7 104 -7 222 0 118 -4 216 -8 216 -4 1 -12 3 -18 4 -5 1 -14 3 -20 4
-25 3 5 131 31 131 20 0 7 26 -18 38 -16 7 -62 30 -103 52 -41 22 -88 44 -104
50 -24 8 -27 13 -21 32 13 41 12 122 -2 151 -8 16 -12 31 -9 34 7 8 -12 43
-24 43 -5 0 -14 -9 -20 -21z m-34 -565 c19 -9 34 -20 34 -25 0 -15 19 -10 59
17 47 30 119 31 157 1 24 -19 33 -47 14 -47 -5 0 -10 4 -10 8 0 15 -76 32
-110 26 -17 -4 -47 -22 -65 -41 -29 -30 -34 -32 -39 -16 -18 52 -118 78 -167
42 -33 -23 -39 -24 -39 -1 0 44 103 66 166 36z m224 -119 c7 -8 14 -33 16 -55
2 -34 -3 -45 -31 -74 -18 -19 -45 -42 -60 -52 -15 -10 -38 -35 -51 -56 -30
-48 -69 -53 -85 -11 -5 15 -24 39 -42 53 -77 61 -107 97 -107 129 0 60 34 100
86 101 47 0 69 -21 69 -69 l0 -40 21 20 22 21 7 -21 c11 -34 20 -24 20 21 0
39 3 45 34 60 30 15 37 15 61 3 14 -7 32 -21 40 -30z m-313 -209 c37 -18 75
-41 82 -50 12 -14 7 -16 -55 -15 -38 1 -82 4 -99 8 -27 6 -30 10 -31 46 0 22
2 49 4 59 5 17 6 18 17 2 7 -9 44 -32 82 -50z m385 7 c3 -27 1 -52 -3 -57 -4
-5 -49 -11 -98 -14 -83 -4 -91 -3 -85 12 4 9 34 30 68 45 33 16 70 36 81 45
30 23 33 20 37 -31z m171 -195 c147 -44 169 -55 197 -97 8 -13 27 -37 42 -55
15 -17 28 -37 28 -43 0 -7 4 -13 8 -13 5 0 17 -16 28 -35 17 -31 17 -37 4 -45
-20 -13 -30 -12 -30 2 0 10 -136 198 -144 198 -1 0 -81 18 -176 40 -170 39
-176 40 -369 40 -195 0 -197 0 -376 -41 l-180 -42 -67 -88 c-38 -49 -68 -95
-68 -104 0 -20 -27 -19 -38 2 -7 12 -1 29 27 67 19 28 42 57 49 65 8 8 24 31
37 52 14 20 30 41 37 45 7 4 84 29 173 54 l160 46 255 -1 255 -2 148 -45z
m-532 -112 c0 -11 3 -61 5 -111 7 -170 3 -155 41 -155 30 0 33 -3 34 -32 3
-103 16 -329 24 -426 4 -54 -10 -69 -64 -64 -40 4 -41 5 -42 41 -2 46 -5 103
-13 221 -18 266 -29 537 -22 549 11 16 36 1 37 -23z m274 -33 c-2 -32 -6 -130
-9 -218 -4 -88 -9 -182 -11 -210 -2 -27 -7 -104 -10 -170 -3 -66 -8 -127 -10
-136 -4 -12 -20 -18 -56 -21 l-50 -3 5 90 c7 131 18 314 21 360 2 22 3 48 4
58 1 12 9 17 30 17 34 0 37 9 41 125 3 85 7 158 9 163 0 1 9 2 20 2 16 0 18
-7 16 -57z m-614 -15 c1 -7 3 -26 5 -43 1 -16 5 -41 8 -55 2 -14 5 -32 5 -41
1 -9 24 -30 51 -47 28 -17 51 -39 52 -49 5 -57 16 -150 22 -189 2 -11 7 -52
11 -90 4 -38 8 -79 10 -91 2 -12 7 -58 10 -100 l7 -78 -41 -11 c-23 -6 -41 -8
-42 -5 0 3 -3 17 -5 31 -15 84 -34 200 -38 230 -3 19 -7 49 -10 65 -6 36 -9
52 -36 218 -11 70 -23 146 -26 170 -3 23 -7 52 -9 64 -2 12 -1 24 2 27 10 10
23 7 24 -6z m935 -40 c-4 -29 -9 -72 -11 -95 -2 -24 -9 -51 -14 -62 -6 -10 -8
-21 -5 -24 4 -3 1 -37 -6 -74 -7 -37 -13 -79 -15 -93 -2 -14 -6 -41 -9 -60
-11 -55 -17 -93 -21 -120 -6 -44 -16 -104 -21 -130 -3 -14 -7 -41 -10 -60 -2
-18 -6 -36 -9 -38 -2 -2 -21 -1 -43 3 -36 6 -39 8 -37 38 3 46 15 148 20 177
3 14 7 50 10 80 3 30 7 71 9 90 3 19 7 60 11 90 3 30 7 64 10 75 2 11 4 22 4
25 1 3 24 19 51 35 39 23 50 35 51 55 1 37 9 113 14 128 2 6 10 12 16 12 8 0
9 -16 5 -52z m-1020 -80 c4 -29 8 -63 10 -75 2 -24 13 -92 20 -128 2 -11 15
-90 29 -175 23 -143 30 -189 40 -278 2 -18 7 -37 10 -42 3 -6 2 -10 -4 -10
-12 0 -26 48 -71 245 -18 77 -45 194 -60 260 -46 193 -45 190 -19 224 13 16
27 30 31 30 3 1 9 -23 14 -51z m1148 -23 c-2 -11 -7 -33 -10 -50 -3 -16 -14
-66 -24 -110 -50 -209 -62 -262 -66 -285 -3 -14 -8 -34 -11 -45 -4 -11 -8 -27
-9 -35 -10 -64 -36 -160 -44 -160 -8 0 -6 31 5 108 3 17 7 49 10 70 3 20 11
62 17 92 6 30 12 70 13 90 2 19 4 36 6 38 3 3 5 13 13 72 4 30 10 64 12 75 2
11 6 34 8 50 5 36 17 104 21 125 2 8 4 22 4 30 1 10 10 5 30 -15 17 -18 27
-38 25 -50z m-823 -117 c1 -52 4 -98 13 -243 17 -275 18 -252 -15 -264 -24 -8
-29 -7 -30 7 -4 56 -7 117 -14 287 -4 105 -8 201 -9 215 -3 34 1 40 30 40 21
0 24 -4 25 -42z m484 -95 c-4 -113 -12 -285 -18 -399 -1 -19 -4 -20 -29 -12
l-28 10 6 137 c4 75 8 162 8 193 1 32 3 58 6 58 3 0 5 26 5 58 -1 80 3 92 31
92 l24 0 -5 -137z"/>
<path d="M1204 3417 c-8 -4 -14 -11 -14 -16 0 -4 199 -7 442 -7 344 1 442 4
446 14 2 6 -5 12 -15 13 -94 6 -848 2 -859 -4z"/>
<path d="M2303 3418 c-2 -5 -2 -12 1 -16 4 -6 851 -9 891 -3 6 1 1 7 -10 13
-23 14 -873 19 -882 6z"/>
<path d="M1039 3260 c-31 -8 -36 -30 -7 -30 13 -1 217 -1 453 -2 378 -1 434 1
460 15 18 9 24 17 15 18 -43 4 -902 3 -921 -1z"/>
<path d="M2408 3259 c-5 -4 5 -12 24 -18 24 -9 153 -13 468 -12 537 0 478 -3
457 18 -15 15 -59 17 -478 17 -253 1 -465 -2 -471 -5z"/>
<path d="M894 3097 c-8 -4 -14 -13 -14 -20 0 -9 113 -12 484 -12 266 0 487 3
490 6 4 3 -1 12 -10 20 -13 11 -104 13 -476 14 -253 0 -466 -4 -474 -8z"/>
<path d="M2531 3089 c-12 -10 -21 -19 -21 -21 0 -7 975 -3 978 5 13 30 -8 31
-471 32 -421 0 -468 -1 -486 -16z"/>
<path d="M850 2940 c-48 -4 -66 -9 -68 -21 -2 -13 52 -15 520 -15 490 1 523 2
526 19 3 13 -4 17 -30 18 -184 3 -898 3 -948 -1z"/>
<path d="M2555 2937 c-8 -4 -12 -13 -9 -21 4 -10 104 -13 525 -13 286 0 521 3
524 6 18 29 -18 32 -519 34 -279 1 -514 -1 -521 -6z"/>
<path d="M775 2782 c-54 -3 -74 -12 -75 -34 0 -5 191 -8 424 -8 442 0 436 -1
436 38 0 7 -667 10 -785 4z"/>
<path d="M2838 2782 c-24 -3 -27 -6 -18 -23 10 -18 26 -19 430 -19 413 0 420
0 420 20 0 17 -7 20 -52 20 -29 0 -210 2 -403 3 -192 1 -362 1 -377 -1z"/>
<path d="M654 2605 c-3 -8 -4 -18 -1 -22 3 -4 166 -8 364 -7 314 0 364 3 403
18 25 9 58 15 73 12 15 -2 27 0 27 5 0 5 -170 9 -430 9 -367 0 -431 -2 -436
-15z"/>
<path d="M2860 2611 c0 -5 14 -8 32 -6 17 1 52 -5 77 -14 39 -14 98 -16 399
-15 194 1 355 4 358 6 2 3 2 13 -2 22 -6 14 -46 16 -435 16 -242 0 -429 -4
-429 -9z"/>
<path d="M616 2444 c-3 -9 -4 -19 -1 -24 3 -4 132 -8 288 -8 284 0 284 0 313
24 l29 23 -311 1 c-276 0 -313 -2 -318 -16z"/>
<path d="M3155 2435 l30 -24 285 1 c157 0 288 3 293 5 4 2 2 13 -3 24 -10 18
-24 19 -323 19 l-312 0 30 -25z"/>
<path d="M599 2293 c0 -5 -2 -16 -4 -25 -2 -11 3 -18 13 -19 80 -3 554 0 558
4 3 3 -1 14 -8 26 -12 20 -19 21 -285 21 -150 0 -273 -3 -274 -7z"/>
<path d="M3220 2285 c-7 -8 -9 -15 -4 -15 5 0 2 -5 -6 -10 -10 -6 85 -10 278
-10 178 0 291 4 287 9 -3 5 -1 12 5 16 30 19 -25 24 -274 24 -232 1 -275 -1
-286 -14z"/>
<path d="M593 2113 l2 -28 364 0 c199 0 365 3 367 7 3 4 0 17 -6 28 -10 19
-20 20 -370 20 l-359 0 2 -27z"/>
<path d="M3059 2138 c0 -2 -3 -14 -5 -28 l-4 -25 360 0 c298 0 362 3 370 14
24 40 12 41 -361 41 -197 0 -359 -1 -360 -2z"/>
<path d="M606 1973 c-2 -2 -1 -15 2 -28 l4 -25 434 0 c451 0 450 0 424 40 -8
13 -68 15 -435 16 -234 0 -427 -1 -429 -3z"/>
<path d="M2905 1963 c-17 -45 -30 -43 428 -41 404 3 432 4 431 21 -1 9 3 17 9
17 6 0 7 3 3 8 -4 4 -201 7 -436 8 -362 1 -430 -1 -435 -13z"/>
<path d="M639 1816 c-5 -7 -5 -36 0 -45 5 -8 124 -11 441 -11 238 0 435 1 437
3 2 2 -1 15 -6 29 l-9 25 -431 0 c-237 0 -431 0 -432 -1z"/>
<path d="M2869 1811 c0 -3 -2 -16 -5 -28 -5 -29 -8 -29 472 -25 l391 2 11 25
c6 13 8 26 4 28 -11 7 -872 4 -873 -2z"/>
<path d="M687 1652 c-14 -3 -14 -7 -4 -25 7 -12 15 -24 19 -27 3 -3 197 -5
430 -5 l423 0 -3 25 c-2 14 -6 27 -8 29 -5 6 -831 8 -857 3z"/>
<path d="M2832 1645 c-4 -5 -8 -19 -9 -31 -3 -20 -2 -20 424 -19 l428 0 12 25
c6 13 10 27 7 29 -10 10 -856 6 -862 -4z"/>
<path d="M750 1492 c-6 -2 -3 -16 5 -33 l16 -29 410 0 410 0 -4 32 -3 32 -412
1 c-227 0 -416 -1 -422 -3z"/>
<path d="M2795 1490 c-1 -3 -5 -17 -9 -32 l-6 -28 407 0 c225 0 414 4 420 8 7
4 14 19 15 32 l3 24 -413 0 c-228 1 -415 -1 -417 -4z"/>
<path d="M837 1328 c-8 -5 -5 -13 11 -28 12 -11 22 -24 22 -28 0 -5 606 -8
668 -3 9 1 12 12 9 33 l-3 33 -348 0 c-191 0 -353 -3 -359 -7z"/>
<path d="M2841 1330 c-5 -3 -10 -17 -13 -32 -4 -19 0 -28 11 -30 9 -2 161 -3
339 -2 314 1 323 2 342 22 25 26 25 42 3 43 -83 4 -677 3 -682 -1z"/>
<path d="M961 1170 c-19 -5 -18 -7 8 -35 l27 -31 319 1 320 0 -3 30 c-2 16 -5
32 -8 34 -6 6 -639 7 -663 1z"/>
<path d="M2750 1168 c0 -5 0 -9 1 -10 0 -2 -4 -15 -10 -29 l-10 -27 326 2 325
1 24 30 c13 17 24 32 24 35 0 3 -153 5 -340 5 -187 0 -340 -3 -340 -7z"/>
<path d="M1095 1011 c-5 -5 38 -47 61 -58 12 -6 167 -10 400 -10 210 0 386 -3
392 -7 6 -3 13 -2 17 4 3 5 -6 12 -20 16 -14 3 -34 18 -46 32 l-20 26 -390 0
c-215 1 -392 -1 -394 -3z"/>
<path d="M2482 993 c-10 -12 -33 -29 -52 -37 -31 -13 7 -14 374 -14 l410 1 33
30 c18 17 31 33 28 36 -3 2 -179 5 -390 5 l-385 1 -18 -22z"/>
<path d="M1290 848 c0 -5 4 -8 9 -8 5 0 16 -6 23 -13 7 -7 26 -21 42 -31 28
-18 55 -19 390 -20 199 -1 366 0 372 2 6 1 -5 19 -23 39 l-34 36 -390 1 c-214
1 -389 -2 -389 -6z"/>
<path d="M2272 815 l-37 -40 367 1 c316 1 371 3 401 17 19 9 40 23 47 32 7 8
17 12 22 8 6 -3 9 0 6 7 -3 10 -83 13 -386 14 l-383 1 -37 -40z"/>
<path d="M1607 688 c-8 -5 -6 -8 6 -8 9 0 17 -5 17 -12 0 -6 3 -9 6 -6 3 4 21
0 40 -8 19 -8 36 -14 39 -14 3 0 6 0 8 -1 1 0 9 -2 17 -4 8 -2 29 -8 45 -12
17 -5 206 -8 420 -7 l390 2 84 29 c47 16 86 33 88 39 4 11 -1143 13 -1160 2z"/>
</g>
</svg>
